<?xml version="1.0" standalone="no"?><!DOCTYPE svg PUBLIC "-//W3C//DTD SVG 1.1//EN" "http://www.w3.org/Graphics/SVG/1.1/DTD/svg11.dtd"><svg t="1641801444943" class="icon" viewBox="0 0 1024 1024" version="1.1" xmlns="http://www.w3.org/2000/svg" p-id="2493" xmlns:xlink="http://www.w3.org/1999/xlink" width="80" height="80"><defs><style type="text/css"></style></defs><path d="M802.5 179.14H695.72V138.5c0-22.92-18.58-41.5-41.5-41.5H369.78c-22.92 0-41.5 18.58-41.5 41.5v40.64H221.5c-68.76 0-124.5 55.74-124.5 124.5V802.5C97 871.26 152.74 927 221.5 927h581c68.76 0 124.5-55.74 124.5-124.5V303.64c0-68.76-55.74-124.5-124.5-124.5z m-22.53 249.95l-293.45 264.1c-3.56 3.2-7.31 5.98-11.12 8.32-0.76 1.95-1.92 3.67-3.5 5.1-4.5 4.05-11.63 5.02-19.75 3.37-6.91 0.67-12.94-0.68-17.02-4.35-1.36-1.22-2.42-2.65-3.23-4.22-3.6-2.29-7.14-4.97-10.53-8.02L290.94 576.01c-18.01-16.21-24.58-36.56-14.69-45.46 9.9-8.91 32.52-2.98 50.52 13.22l125.31 112.77 290.3-261.27c18.01-16.21 41.02-21.78 51.39-12.43 10.39 9.34 4.2 30.04-13.8 46.25z" p-id="2494"></path></svg>